<?xml version="1.0" standalone="no"?>
<!DOCTYPE svg PUBLIC "-//W3C//DTD SVG 20010904//EN"
 "http://www.w3.org/TR/2001/REC-SVG-20010904/DTD/svg10.dtd">
<svg version="1.0" xmlns="http://www.w3.org/2000/svg"
 width="512.000000pt" height="512.000000pt" viewBox="0 0 512.000000 512.000000"
 preserveAspectRatio="xMidYMid meet">

<g transform="translate(0.000000,512.000000) scale(0.100000,-0.100000)"
fill="#000000" stroke="none">
<path d="M613 4300 c-39 -22 -61 -44 -83 -83 l-30 -52 0 -1372 0 -1373 2060 0
2060 0 0 1373 0 1372 -30 52 c-22 39 -44 61 -83 83 l-52 30 -1895 0 -1895 0
-52 -30z m588 -499 l24 -19 3 -306 3 -306 59 0 c32 0 66 -3 75 -6 24 -10 46
-60 39 -89 -13 -51 -31 -55 -260 -55 l-213 0 -20 26 c-28 35 -26 69 4 99 21
22 33 25 90 25 l65 0 0 191 0 191 -40 -36 c-49 -44 -89 -48 -125 -11 -47 46
-37 67 93 197 100 100 123 118 149 118 17 0 41 -9 54 -19z m753 -6 c53 -25
104 -78 130 -134 19 -42 21 -63 21 -241 0 -177 -2 -199 -21 -240 -49 -106
-132 -160 -243 -160 -108 1 -189 50 -239 144 -27 50 -27 53 -27 251 0 199 0
200 28 257 30 62 82 110 144 133 51 20 157 14 207 -10z m663 3 l23 -21 0 -304
0 -303 67 0 c55 0 71 -4 90 -22 29 -27 31 -80 3 -108 -19 -19 -33 -20 -235
-20 -202 0 -216 1 -235 20 -30 30 -27 83 6 109 21 16 41 21 90 21 l64 0 0 190
c0 105 -4 190 -8 190 -4 0 -23 -16 -42 -35 -24 -25 -43 -35 -64 -35 -40 0 -76
35 -76 74 0 26 19 49 117 148 128 129 153 140 200 96z m743 1 c60 -27 107 -74
136 -134 23 -47 24 -61 24 -245 0 -183 -2 -198 -24 -245 -45 -98 -131 -155
-230 -155 -81 0 -130 17 -182 63 -82 72 -89 95 -92 312 -4 203 2 243 43 307
68 104 214 148 325 97z m679 -5 c20 -26 21 -38 21 -325 l0 -299 65 0 c57 0 69
-3 90 -25 30 -30 32 -64 4 -99 l-20 -26 -214 0 c-251 0 -262 4 -256 92 2 37
41 58 108 58 l63 0 0 191 0 191 -40 -36 c-68 -61 -140 -40 -140 41 0 34 10 47
113 150 102 102 116 113 149 113 28 0 42 -7 57 -26z m-2854 -1060 c41 -16 45
-50 45 -354 l0 -290 63 0 c34 0 69 -6 78 -13 43 -33 46 -89 7 -124 -18 -16
-41 -18 -230 -18 l-210 0 -24 28 c-31 36 -31 71 1 102 21 22 33 25 90 25 l65
0 0 191 0 191 -40 -36 c-51 -46 -98 -49 -129 -10 -40 50 -31 68 97 196 119
119 138 130 187 112z m760 -18 c63 -29 112 -77 139 -136 19 -41 21 -63 21
-240 0 -177 -2 -199 -21 -240 -48 -103 -134 -161 -242 -161 -107 -1 -189 49
-240 146 -27 49 -27 53 -27 250 l0 200 29 59 c30 60 84 109 149 133 55 20 136
15 192 -11z m672 2 l23 -21 0 -304 0 -303 64 0 c77 0 116 -24 116 -71 0 -78
-32 -89 -255 -89 -223 0 -255 11 -255 89 0 47 39 71 116 71 l64 0 0 191 0 191
-42 -36 c-28 -24 -52 -36 -72 -36 -40 0 -76 35 -76 74 0 26 19 49 117 148 128
129 153 140 200 96z m758 -6 c47 -24 95 -72 121 -122 16 -30 19 -63 22 -237 3
-197 3 -205 -21 -256 -47 -104 -130 -158 -241 -158 -76 0 -120 16 -176 67 -78
71 -85 93 -88 309 -2 124 0 204 8 230 24 82 88 152 167 181 52 20 157 13 208
-14z m660 3 l25 -24 0 -301 0 -300 65 0 c57 0 69 -3 90 -25 32 -31 32 -66 1
-102 l-24 -28 -211 0 c-200 0 -211 1 -231 21 -32 31 -30 82 4 111 22 18 39 23
87 23 l59 0 0 192 0 192 -38 -37 c-65 -63 -142 -42 -142 40 0 34 10 47 113
150 98 98 117 113 145 113 22 0 41 -9 57 -25z"/>
<path d="M1793 3655 c-55 -24 -63 -53 -63 -242 0 -184 4 -199 60 -228 37 -19
63 -19 100 0 53 27 60 57 60 235 0 183 -8 212 -65 236 -42 17 -51 17 -92 -1z"/>
<path d="M3213 3656 c-57 -26 -68 -55 -72 -199 -4 -159 3 -208 35 -247 50 -59
144 -47 177 23 22 46 24 310 3 360 -27 64 -84 89 -143 63z"/>
<path d="M1793 2575 c-55 -24 -63 -54 -63 -234 0 -88 4 -171 10 -185 11 -30
65 -66 98 -66 36 0 80 27 97 60 12 22 15 66 15 190 0 182 -7 207 -64 234 -41
19 -51 19 -93 1z"/>
<path d="M3213 2576 c-57 -26 -68 -55 -72 -199 -4 -159 3 -208 35 -247 49 -58
145 -45 178 25 21 44 23 309 2 358 -27 64 -84 89 -143 63z"/>
<path d="M170 1255 c-9 -11 -11 -36 -7 -81 11 -140 114 -281 254 -347 l68 -32
2076 0 2075 0 75 37 c137 68 235 204 247 343 3 44 1 70 -8 80 -11 13 -278 15
-2390 15 -2112 0 -2379 -2 -2390 -15z m749 -181 c28 -35 26 -69 -4 -99 -72
-73 -175 30 -107 108 24 28 86 23 111 -9z m351 6 c30 -30 27 -83 -6 -109 -15
-12 -37 -21 -49 -21 -38 0 -75 37 -75 76 0 45 29 74 75 74 22 0 43 -8 55 -20z
m352 3 c23 -28 28 -51 17 -80 -21 -56 -82 -71 -124 -28 -30 30 -32 64 -4 99
25 32 87 37 111 9z m2768 -3 c30 -30 27 -83 -6 -109 -26 -21 -35 -21 -609 -21
-540 0 -584 1 -604 18 -32 26 -37 72 -11 105 l21 27 595 0 c581 0 594 0 614
-20z"/>
</g>
</svg>
