<?xml version="1.0" standalone="no"?>
<!DOCTYPE svg PUBLIC "-//W3C//DTD SVG 20010904//EN"
 "http://www.w3.org/TR/2001/REC-SVG-20010904/DTD/svg10.dtd">
<svg version="1.0" xmlns="http://www.w3.org/2000/svg"
 width="512.000000pt" height="512.000000pt" viewBox="0 0 512.000000 512.000000"
 preserveAspectRatio="xMidYMid meet">

<g transform="translate(0.000000,512.000000) scale(0.100000,-0.100000)"
fill="#000000" stroke="none">
<path d="M115 4751 c-47 -22 -89 -64 -104 -104 -8 -20 -11 -494 -11 -1533 0
-1331 2 -1509 15 -1541 33 -79 91 -113 191 -113 l67 0 -130 -132 c-105 -108
-131 -140 -137 -170 -12 -67 18 -134 74 -163 37 -19 103 -19 138 -1 15 8 128
116 252 240 l225 226 -210 0 -210 0 418 418 c229 230 417 425 417 434 0 8 -25
53 -56 98 -115 169 -158 306 -158 505 0 102 5 148 22 213 65 243 215 436 434
556 365 201 838 107 1096 -218 305 -384 246 -929 -133 -1233 -148 -119 -311
-181 -501 -190 -129 -7 -211 5 -338 48 -48 17 -98 28 -110 25 -11 -3 -167
-152 -346 -331 l-325 -325 2143 0 c2113 0 2143 0 2181 20 47 23 77 60 91 109
8 24 10 518 8 1548 l-3 1511 -31 39 c-16 21 -50 48 -74 61 l-44 22 -2406 0
c-2320 0 -2406 -1 -2445 -19z m3463 -881 c18 -11 41 -34 52 -52 19 -32 20 -52
20 -864 l0 -831 -22 -33 c-35 -51 -69 -72 -119 -72 -54 -1 -100 21 -131 64
l-23 33 -3 825 -2 825 22 44 c39 76 134 104 206 61z m482 -402 c18 -13 41 -39
51 -58 18 -33 19 -70 19 -653 0 -663 0 -657 -51 -704 -53 -47 -146 -48 -196
-1 -54 49 -53 39 -53 705 0 568 1 621 18 653 38 77 142 105 212 58z m470 -396
c22 -12 44 -35 58 -63 l23 -44 -3 -425 -3 -425 -23 -33 c-31 -43 -77 -65 -131
-64 -50 0 -84 21 -118 72 -23 33 -23 33 -23 464 0 412 1 432 20 464 41 68 129
91 200 54z m-1422 -202 c18 -11 41 -34 52 -52 19 -31 20 -51 20 -364 0 -327 0
-331 -22 -364 -35 -51 -69 -72 -119 -72 -54 -1 -100 21 -131 64 -23 33 -23 36
-26 358 -3 322 -2 325 20 369 39 76 135 104 206 61z"/>
<path d="M1635 3476 c-138 -33 -264 -122 -344 -242 -70 -104 -96 -191 -96
-319 0 -169 58 -302 183 -422 63 -61 184 -124 270 -142 194 -40 381 17 523
158 120 119 172 242 172 406 0 178 -74 334 -213 448 -56 47 -168 102 -238 116
-68 14 -193 13 -257 -3z"/>
<path d="M2100 1170 c-18 -18 -20 -33 -20 -169 0 -134 -2 -150 -17 -155 -10
-3 -56 -12 -103 -21 -140 -26 -336 -83 -507 -149 -116 -44 -139 -59 -165 -109
-34 -67 -14 -140 53 -189 49 -37 85 -34 228 22 537 207 1112 242 1666 100 135
-34 195 -54 400 -130 53 -20 65 -21 104 -11 110 31 148 169 67 246 -64 60
-434 185 -666 225 -110 19 -100 1 -100 171 0 136 -2 151 -20 169 -19 19 -33
20 -460 20 -427 0 -441 -1 -460 -20z"/>
</g>
</svg>
